<?xml version="1.0" encoding="iso-8859-1"?>
<!-- Generator: Adobe Illustrator 19.0.0, SVG Export Plug-In . SVG Version: 6.00 Build 0)  -->
<svg version="1.1" id="Layer_1" xmlns="http://www.w3.org/2000/svg" xmlns:xlink="http://www.w3.org/1999/xlink" x="0px" y="0px"
	 viewBox="0 0 512 512" style="enable-background:new 0 0 512 512;" xml:space="preserve">
<g>
	<g>
		<path d="M437.333,213.333c5.888,0,10.667-4.779,10.667-10.667v-128c0-29.397-23.915-53.333-53.333-53.333H53.333
			C23.915,21.333,0,45.269,0,74.667v362.667c0,29.397,23.915,53.333,53.333,53.333h341.333c29.419,0,53.333-23.936,53.333-53.333
			v-64c0-5.888-4.779-10.667-10.667-10.667c-5.888,0-10.667,4.779-10.667,10.667v64c0,17.643-14.357,32-32,32H53.333
			c-17.643,0-32-14.357-32-32V128h405.333v74.667C426.667,208.555,431.445,213.333,437.333,213.333z M21.333,106.667v-32
			c0-17.643,14.357-32,32-32h341.333c17.643,0,32,14.357,32,32v32H21.333z"/>
	</g>
</g>
<g>
	<g>
		<circle cx="53.333" cy="74.667" r="10.667"/>
	</g>
</g>
<g>
	<g>
		<circle cx="96" cy="74.667" r="10.667"/>
	</g>
</g>
<g>
	<g>
		<circle cx="138.667" cy="74.667" r="10.667"/>
	</g>
</g>
<g>
	<g>
		<path d="M330.667,298.667c-5.888,0-10.667,4.779-10.667,10.667S315.2,320,309.333,320H288c-5.867,0-10.667-4.779-10.667-10.667
			v-42.667c0-5.888,4.8-10.667,10.667-10.667h21.333C315.2,256,320,260.779,320,266.667s4.779,10.667,10.667,10.667
			s10.667-4.779,10.667-10.667c0-17.643-14.357-32-32-32H288c-17.643,0-32,14.357-32,32v42.667c0,17.643,14.357,32,32,32h21.333
			c17.643,0,32-14.357,32-32C341.333,303.445,336.555,298.667,330.667,298.667z"/>
	</g>
</g>
<g>
	<g>
		<path d="M416,277.333h-10.667v-10.667c0-5.888-4.779-10.667-10.667-10.667S384,260.779,384,266.667v10.667h-10.667
			c-5.888,0-10.667,4.779-10.667,10.667s4.779,10.667,10.667,10.667H384v10.667c0,5.888,4.779,10.667,10.667,10.667
			s10.667-4.779,10.667-10.667v-10.667H416c5.888,0,10.667-4.779,10.667-10.667S421.888,277.333,416,277.333z"/>
	</g>
</g>
<g>
	<g>
		<path d="M501.333,277.333h-10.667v-10.667c0-5.888-4.779-10.667-10.667-10.667c-5.888,0-10.667,4.779-10.667,10.667v10.667
			h-10.667c-5.888,0-10.667,4.779-10.667,10.667s4.779,10.667,10.667,10.667h10.667v10.667c0,5.888,4.779,10.667,10.667,10.667
			c5.888,0,10.667-4.779,10.667-10.667v-10.667h10.667c5.888,0,10.667-4.779,10.667-10.667S507.221,277.333,501.333,277.333z"/>
	</g>
</g>
<g>
</g>
<g>
</g>
<g>
</g>
<g>
</g>
<g>
</g>
<g>
</g>
<g>
</g>
<g>
</g>
<g>
</g>
<g>
</g>
<g>
</g>
<g>
</g>
<g>
</g>
<g>
</g>
<g>
</g>
</svg>
