<?xml version="1.0" encoding="iso-8859-1"?>
<!-- Generator: Adobe Illustrator 19.0.0, SVG Export Plug-In . SVG Version: 6.00 Build 0)  -->
<svg version="1.1" id="Layer_1" xmlns="http://www.w3.org/2000/svg" xmlns:xlink="http://www.w3.org/1999/xlink" x="0px" y="0px"
	 viewBox="0 0 512 512" style="enable-background:new 0 0 512 512;" xml:space="preserve">
<g>
	<g>
		<path d="M503.685,418.413h-52.568v-58.757c0-4.593-3.722-8.315-8.315-8.315h-69.289v-47.117h52.568
			c4.593,0,8.315-3.722,8.315-8.315v-73.169c0-4.593-3.722-8.315-8.315-8.315h-52.568v-49.334c0-4.593-3.722-8.315-8.315-8.315
			H264.315v-47.671h24.995c4.593,0,8.315-3.722,8.315-8.315s-3.722-8.315-8.315-8.315H164.539V20.417h182.923v72.061h-23.886
			c-4.593,0-8.315,3.722-8.315,8.315s3.722,8.315,8.315,8.315h32.201c4.593,0,8.315-3.722,8.315-8.315v-88.69
			c0-4.593-3.722-8.315-8.315-8.315H156.224c-4.593,0-8.315,3.722-8.315,8.315v88.69c0,4.593,3.722,8.315,8.315,8.315h91.461v47.671
			H141.647c-4.593,0-8.315,3.722-8.315,8.315v49.334H80.764c-4.593,0-8.315,3.722-8.315,8.315v73.169
			c0,4.593,3.722,8.315,8.315,8.315h52.568v47.117H69.197c-4.593,0-8.315,3.722-8.315,8.315v58.757H8.315
			c-4.593,0-8.315,3.722-8.315,8.315v73.169c0,4.593,3.722,8.315,8.315,8.315h121.765c4.593,0,8.315-3.722,8.315-8.315v-73.169
			c0-4.593-3.722-8.315-8.315-8.315H77.512v-50.442h167.597v50.442H192.54c-4.593,0-8.315,3.722-8.315,8.315v73.169
			c0,4.593,3.722,8.315,8.315,8.315H256c4.593,0,8.315-3.722,8.315-8.315c0-4.593-3.722-8.315-8.315-8.315h-55.145v-56.54h105.136
			v56.54h-15.726c-4.593,0-8.315,3.722-8.315,8.315c0,4.593,3.722,8.315,8.315,8.315h24.04c4.593,0,8.315-3.722,8.315-8.315v-73.169
			c0-4.593-3.722-8.315-8.315-8.315h-52.568v-50.442h172.75v50.442h-52.568c-4.593,0-8.315,3.722-8.315,8.315v73.169
			c0,4.593,3.722,8.315,8.315,8.315h121.765c4.593,0,8.315-3.722,8.315-8.315v-73.169C512,422.135,508.278,418.413,503.685,418.413z
			 M121.765,435.043v56.54H16.629v-56.54H121.765z M417.767,231.056v56.54H312.632v-56.54H417.767z M356.885,351.342H149.961
			v-47.117h4.295c4.593,0,8.315-3.722,8.315-8.315c0-4.593-3.722-8.315-8.315-8.315H89.079v-56.54h105.136v56.54h-5.694
			c-4.593,0-8.315,3.722-8.315,8.315c0,4.593,3.722,8.315,8.315,8.315h14.009c4.593,0,8.315-3.722,8.315-8.315v-73.169
			c0-4.593-3.722-8.315-8.315-8.315h-52.569v-41.019h206.923v41.019h-52.568c-4.593,0-8.315,3.722-8.315,8.315v73.169
			c0,4.593,3.722,8.315,8.315,8.315h52.568V351.342z M390.235,491.582v-56.54h105.135v56.54H390.235z"/>
	</g>
</g>
<g>
</g>
<g>
</g>
<g>
</g>
<g>
</g>
<g>
</g>
<g>
</g>
<g>
</g>
<g>
</g>
<g>
</g>
<g>
</g>
<g>
</g>
<g>
</g>
<g>
</g>
<g>
</g>
<g>
</g>
</svg>
