<?xml version="1.0" encoding="iso-8859-1"?>
<!-- Generator: Adobe Illustrator 19.0.0, SVG Export Plug-In . SVG Version: 6.00 Build 0)  -->
<svg version="1.1" id="Capa_1" xmlns="http://www.w3.org/2000/svg" xmlns:xlink="http://www.w3.org/1999/xlink" x="0px" y="0px"
	 viewBox="0 0 512.008 512.008" style="enable-background:new 0 0 512.008 512.008;" xml:space="preserve">
<g>
	<g>
		<g>
			<path style="fill:#FFFFFF;" d="M508.907,463.04l-17.28-17.28c12.267-4.784,20.351-16.593,20.373-29.76V32c0-17.673-14.327-32-32-32H106.027
				c-0.98,0.044-1.949,0.224-2.88,0.533l-0.853,0.533c-1.149,0.522-2.197,1.245-3.093,2.133l-96,96
				c-0.889,0.897-1.611,1.944-2.133,3.093v0.96c-0.483,0.87-0.842,1.804-1.067,2.773v0.64V416c0,17.673,14.327,32,32,32h21.333
				v53.333C53.333,507.224,58.109,512,64,512h42.667c5.891,0,10.667-4.776,10.667-10.667V448h284.8l60.907,60.907
				c4.16,4.136,10.88,4.136,15.04,0l30.827-30.827C513.042,473.92,513.042,467.2,508.907,463.04z M96,36.373V96H36.373L96,36.373z
				 M96,490.667H74.667V480H96V490.667z M96,458.667H74.667V341.333H96V458.667z M76.587,213.333l7.147-42.667h3.307l7.147,42.667
				H76.587z M470.507,486.293L304.32,320c-3.169-3.175-7.987-4.028-12.053-2.133c-27.778,12.914-60.766,0.864-73.68-26.914
				c-4.528-9.74-6.131-20.586-4.613-31.219l23.68,23.68c12.666,12.666,33.201,12.666,45.867,0c12.666-12.666,12.666-33.201,0-45.867
				l-23.68-23.68c30.326-4.328,58.419,16.748,62.747,47.074c1.518,10.634-0.085,21.479-4.613,31.219
				c-1.894,4.067-1.042,8.884,2.133,12.053l166.187,166.293L470.507,486.293z M490.667,416c0,5.891-4.776,10.667-10.667,10.667
				h-7.467L340.16,294.293c6.846-19.576,5.46-41.091-3.84-59.627h49.28c5.891,22.816,29.163,36.536,51.978,30.645
				c22.816-5.891,36.536-29.163,30.645-51.979c-5.891-22.816-29.163-36.536-51.979-30.645c-15.029,3.88-26.765,15.616-30.645,30.645
				h-65.067c-22.819-21.842-56.707-27.433-85.333-14.08c-5.324,2.521-7.596,8.881-5.075,14.206c0.521,1.101,1.228,2.105,2.088,2.968
				l36.16,36.16c4.33,4.33,4.33,11.35,0,15.68c-4.33,4.33-11.35,4.33-15.68,0l-36.16-36.16c-4.171-4.16-10.925-4.152-15.085,0.019
				c-0.861,0.863-1.567,1.866-2.088,2.968c-17.95,38.43-1.348,84.135,37.082,102.085c18.2,8.501,39.006,9.533,57.958,2.875
				l86.4,86.613H117.333v-96c0-5.891-4.776-10.667-10.667-10.667H96v-85.333h10.667c5.891,0.076,10.727-4.638,10.803-10.528
				c0.008-0.618-0.038-1.235-0.137-1.845l-10.667-64c-0.845-5.217-5.383-9.028-10.667-8.96H74.667
				c-5.284-0.068-9.822,3.743-10.667,8.96l-10.667,64c-0.943,5.815,3.007,11.294,8.822,12.237c0.61,0.099,1.227,0.145,1.845,0.137
				h10.667V320H64c-5.891,0-10.667,4.776-10.667,10.667v96H32c-5.891,0-10.667-4.776-10.667-10.667V117.333h85.333
				c5.891,0,10.667-4.776,10.667-10.667V21.333H480c5.891,0,10.667,4.776,10.667,10.667V416z M405.333,224
				c0-11.782,9.551-21.333,21.333-21.333S448,212.218,448,224s-9.551,21.333-21.333,21.333S405.333,235.782,405.333,224z"/>
			<path style="fill:#FFFFFF;" d="M202.667,64c-23.564-0.076-42.728,18.964-42.805,42.528c-0.076,23.564,18.964,42.728,42.528,42.805
				c19.507,0.063,36.573-13.112,41.45-32h182.827V96H243.84C238.989,77.212,222.071,64.063,202.667,64z M202.667,128
				c-11.782,0-21.333-9.551-21.333-21.333c0-11.782,9.551-21.333,21.333-21.333c11.782,0,21.333,9.551,21.333,21.333
				C224,118.449,214.449,128,202.667,128z"/>
			<path style="fill:#FFFFFF;" d="M458.667,42.667h-32V64H448v21.333h21.333v-32C469.333,47.442,464.558,42.667,458.667,42.667z"/>
		</g>
	</g>
</g>
<g>
</g>
<g>
</g>
<g>
</g>
<g>
</g>
<g>
</g>
<g>
</g>
<g>
</g>
<g>
</g>
<g>
</g>
<g>
</g>
<g>
</g>
<g>
</g>
<g>
</g>
<g>
</g>
<g>
</g>
</svg>
