<?xml version="1.0" encoding="utf-8"?>
<!-- Generator: Adobe Illustrator 21.1.0, SVG Export Plug-In . SVG Version: 6.00 Build 0)  -->
<svg version="1.1" id="Layer_1" xmlns="http://www.w3.org/2000/svg" xmlns:xlink="http://www.w3.org/1999/xlink" x="0px" y="0px"
	 viewBox="0 0 64 64" style="enable-background:new 0 0 64 64;" xml:space="preserve">
<style type="text/css">
	.st0{fill:#363631;}
	.st1{fill:#EB650E;}
</style>
<g id="Logo">
	<path id="circle" class="st0" d="M61.3,18.5c0.5,0.4,1,0.7,1.5,1.1c-1.7,0.7-3.5,1.3-5.2,2c-0.1-0.9-0.3-1.8-0.4-2.7
		c-3.3-0.8-6.5-1.6-9.8-2.3c-0.4,1.9-1.5,3.2-2.9,4.1c-1.4,1-3.1,1.6-4.9,2.1c-1.8,0.5-4.1,0.7-6.3,0.7c-2.3-0.1-4.4-0.3-6.3-0.7
		c-1.1,2.7-2.1,5.4-3.2,8.1c2,0.5,4,1.1,6,1.6c-1.9,0.8-3.8,1.5-5.7,2.2c-1.4,0.5-2.8,1.1-4.1,1.6c-0.4-0.5-0.7-1.1-1.1-1.6
		c-1.3-2-2.6-4-3.8-6c0-0.1-0.1-0.1-0.1-0.2c1.9,0.5,3.9,1,5.8,1.6c1.2-2.7,2.4-5.3,3.5-8c-3.4-1-6.5-2.5-8.8-4.6
		c-1.2-1-2.3-2.3-2.9-3.8c-0.3-0.8-0.5-1.8-0.4-2.9c0.1-1,0.5-1.7,1-2.4c-2.7-0.7-5.6-1.3-8.3-2c-0.1,0-0.2-0.1-0.3-0.1
		c-0.1,0-0.2,0.2-0.3,0.2C3.8,7,3.4,7.4,2.9,7.8C2.7,7.9,2.6,8.1,2.4,8.2C1.7,7.1,1,5.9,0.3,4.7c0,0,0,0,0,0C2.7,4.4,5.1,4,7.5,3.7
		C6.9,4.2,6.3,4.8,5.7,5.3c0,0-0.1,0.1-0.1,0.1c2.7,0.7,5.4,1.3,8.1,1.9c0.1,0,0.2,0.1,0.3,0.1c0.1,0,0.3-0.2,0.4-0.3
		c0.1-0.1,0.3-0.2,0.4-0.3c1.9-1.4,4.3-2.3,7.2-2.7c3.4-0.5,7.3-0.3,10.4,0.3c0.5-1,0.9-2,1.4-3c-1.1-0.2-2.2-0.5-3.2-0.7
		c1.6-0.2,3.1-0.4,4.7-0.6c0,0,0.1,0,0.1,0c1.1,0.8,2.3,1.6,3.4,2.4c-1.1-0.2-2.2-0.5-3.3-0.7c-0.4,1-0.8,2-1.3,3
		c4.6,1.3,8.7,3.2,11.4,6.4c0.9,1.1,1.7,2.4,1.8,4.1c3.2,0.8,6.4,1.5,9.5,2.3c-0.1-0.8-0.2-1.5-0.3-2.3c0.1,0,0.1,0.1,0.2,0.1
		C58.3,16.4,59.8,17.5,61.3,18.5z M43.5,14.4c-0.1-1.4-0.7-2.4-1.3-3.2c-0.7-0.8-1.5-1.5-2.4-2.1c-1.8-1.2-3.9-2.2-6.2-2.8
		c-0.3,0.6-0.5,1.3-0.8,1.9c-0.6-0.2-1.2-0.3-1.9-0.4c0.3-0.6,0.6-1.2,0.9-1.9c-1.7-0.3-3.5-0.5-5.5-0.4c-1.7,0-3.2,0.3-4.6,0.7
		c-1.5,0.4-2.9,1.1-3.8,2.1c0,0-0.1,0-0.1,0.1c1.5,0.4,2.9,0.7,4.4,1.1c-0.1,0.1-0.2,0.3-0.4,0.5c-0.1,0.2-0.2,0.4-0.3,0.5
		c-1.5-0.4-3-0.7-4.6-1.1c-0.3,0.5-0.5,1.1-0.5,1.9c0,0.8,0.2,1.5,0.5,2c0.5,1.1,1.4,2,2.2,2.7c1.8,1.5,4,2.6,6.5,3.4
		c0.5-1,0.9-2,1.4-3c0.7,0.3,1.5,0.4,2.3,0.6c-0.4,1-0.8,2.1-1.2,3.1c1.4,0.3,3,0.5,4.7,0.5c1.7,0,3.3-0.2,4.7-0.5
		c1.4-0.3,2.7-0.8,3.7-1.5c1-0.7,1.9-1.6,2.3-2.8c-1.6-0.4-3.2-0.8-4.9-1.2c0.2-0.3,0.3-0.7,0.3-1.1C40.3,13.7,41.9,14.1,43.5,14.4z
		"/>
	<path id="x_1_" class="st1" d="M36.5,9.8c0.5,0.4,1,0.8,1.4,1.2c-1.9,0.4-3.8,0.9-5.8,1.3c0.1,0.1,0.2,0.2,0.3,0.3
		c0.6,0.6,1.3,1.2,1.9,1.8c0.7,0.7,1.5,1.3,2.2,2c-0.8,0.2-1.6,0.5-2.5,0.7c-0.2-0.1-0.4-0.3-0.6-0.5c-0.5-0.5-1.1-1.1-1.6-1.6
		c-0.7-0.7-1.4-1.4-2.2-2.1c-2.2,0.5-4.4,1-6.6,1.5c-0.5-0.5-1-1.1-1.4-1.6c2.2-0.5,4.3-0.9,6.5-1.4c0,0,0-0.1-0.1-0.1
		c-0.5-0.5-1.1-1.1-1.7-1.6c-0.4-0.4-0.9-0.9-1.3-1.3c-0.1-0.1-0.3-0.3-0.4-0.4c0.8-0.1,1.5-0.3,2.3-0.4c1.2,1.1,2.4,2.3,3.7,3.4
		c1.7-0.4,3.6-0.8,5.3-1.1c0.1,0,0.3-0.1,0.4-0.1C36.3,9.7,36.4,9.8,36.5,9.8z"/>
	<path id="splash" class="st1" d="M59.6,34.7c0,4.8,0,9.7,0,14.5c-14.1,0-28.2,0-42.3,0c0-0.8,0-1.7,0-2.5c0.4,0.6,1,1.1,1.8,1.3
		c0.9,0.2,1.9,0,2.5-0.4c1.2-0.8,2-2.2,2-4.2c0-2-0.7-3.4-2-4.2c-0.6-0.4-1.6-0.6-2.5-0.4c-0.8,0.2-1.4,0.7-1.8,1.3
		c0-0.4,0-0.8,0-1.1c0,0-2,0-2.9,0c0,3.4,0,6.8,0,10.2c-1.6,0-3.2,0-4.8,0c-1,0-1.3,0-2.8,0c-2.2,0-2.3,0-5.1,0c0-4.8,0-9.7,0-14.5
		c5.7,0,11.4,0,17,0c0,0,0,0,0,0c0.4,0.5,0.7,1.1,1.1,1.6c1.4-0.5,2.8-1.1,4.1-1.6c0,0,0,0,0,0C35.9,34.7,47.7,34.7,59.6,34.7z
		 M54.8,43.8c0-1.3,0.1-2.7-0.3-3.7c-0.4-0.9-1.3-1.4-2.6-1.4c-1.3,0-2,0.6-2.6,1.4c0-1.4,0-2.8,0-4.2c-0.9,0-1.9,0-2.9,0
		c0,3.9,0,7.9,0,11.9c0.9,0,1.9,0,2.9,0c0-1.6,0-3.2,0-4.7c0-0.8,0.1-1.5,0.6-1.8c0.5-0.4,1.5-0.3,1.8,0.2c0.2,0.4,0.2,1.1,0.2,1.7
		c0,1.5,0,3.1,0,4.6c1,0,1.9,0,2.9,0C54.8,46.5,54.8,45.1,54.8,43.8z M50.8,49.2C50.8,49.1,50.9,49.1,50.8,49.2
		C50.8,49.1,50.8,49.2,50.8,49.2C50.8,49.1,50.8,49.1,50.8,49.2C50.8,49.1,50.8,49.1,50.8,49.2c-0.1-0.1-0.1,0-0.1,0c0,0,0,0,0,0
		c0,0-0.1,0,0,0c0,0,0,0,0,0.1c0,0-0.1,0,0,0c0,0-0.1,0-0.1,0c0,0,0,0,0,0c0,0,0,0,0,0c0,0,0,0,0,0c0,0,0,0,0,0c0,0,0,0,0,0
		c0,0,0,0,0.1,0c0,0,0,0,0-0.1C50.7,49.1,50.7,49.2,50.8,49.2C50.8,49.2,50.8,49.2,50.8,49.2C50.7,49.2,50.8,49.2,50.8,49.2
		C50.8,49.2,50.8,49.2,50.8,49.2C50.8,49.2,50.8,49.2,50.8,49.2z M44.8,47c0.5-0.5,0.8-1.2,0.8-2.2c-0.1-0.8-0.5-1.4-1.2-1.8
		c-0.6-0.3-1.4-0.5-2.2-0.8c-0.3-0.1-0.8-0.2-1.1-0.3c-0.3-0.1-0.8-0.3-0.8-0.6c-0.1-0.3,0.1-0.6,0.4-0.7c0.4-0.2,1.1-0.2,1.5,0
		c0.3,0.1,0.4,0.4,0.4,0.7c0,0,0,0,0,0c0.9,0,1.7,0,2.7,0c-0.2-1.7-1.4-2.4-3.1-2.5c-1.9-0.2-3.5,0.2-4.3,1.2
		c-0.4,0.5-0.7,1.4-0.4,2.2c0.2,0.7,0.7,1.1,1.3,1.5c0.6,0.3,1.3,0.5,2.1,0.8c0.3,0.1,0.8,0.2,1.1,0.3c0.3,0.1,0.7,0.3,0.8,0.6
		c0,0.2,0,0.4-0.1,0.5c-0.2,0.4-0.8,0.5-1.3,0.5c-0.8,0-1.4-0.4-1.5-1.2c-0.9,0-1.9,0-2.9,0c0.2,1.8,1.4,2.6,3.1,2.9
		C42,48.3,43.9,47.9,44.8,47z M40.6,34.7C40.7,34.7,40.7,34.7,40.6,34.7C40.6,34.7,40.6,34.7,40.6,34.7
		C40.6,34.7,40.6,34.7,40.6,34.7C40.6,34.7,40.6,34.7,40.6,34.7C40.6,34.7,40.6,34.8,40.6,34.7C40.6,34.8,40.6,34.7,40.6,34.7
		c-0.1,0-0.1,0-0.1,0C40.5,34.8,40.5,34.8,40.6,34.7c-0.1,0.1-0.1,0.1-0.2,0.1c0.1,0,0,0,0,0.1c0,0,0,0,0,0c0,0,0,0,0,0c0,0,0,0,0,0
		c0,0,0,0,0,0c0,0,0,0,0,0c0,0,0,0,0,0c0,0,0,0,0,0c0,0,0,0,0-0.1c0.1,0,0.1,0,0-0.1C40.6,34.8,40.6,34.8,40.6,34.7
		C40.6,34.8,40.6,34.7,40.6,34.7C40.6,34.8,40.6,34.8,40.6,34.7C40.6,34.7,40.6,34.7,40.6,34.7C40.6,34.7,40.6,34.7,40.6,34.7z
		 M36.7,47.8c0-0.1,0-0.2,0-0.3c0-0.1-0.1-0.1-0.1-0.1c-0.4-0.4-0.3-1.5-0.3-2.3c0-0.8,0-1.7,0-2.4c0-0.8,0-1.6-0.3-2.2
		c-0.2-0.6-0.6-0.9-1.2-1.2c-1.1-0.5-3-0.6-4.2-0.2c-1.2,0.4-2,1.2-2.2,2.7c0.9,0,1.7,0,2.6,0c0.1-0.5,0.4-0.9,1-0.9
		c0.6-0.1,1.3,0,1.5,0.5c0.1,0.1,0.1,0.4,0,0.6c-0.1,0.2-0.4,0.4-0.7,0.4c-0.9,0.3-2,0.3-2.8,0.6c-1.1,0.4-1.9,1.2-1.9,2.7
		c0.1,1.4,0.9,2.2,2.2,2.4c0.8,0.1,1.4,0,2-0.2c0.5-0.2,0.9-0.5,1.3-0.9c0,0,0-0.1,0.1,0c0,0.3,0.1,0.6,0.1,0.9
		C34.8,47.8,35.7,47.8,36.7,47.8z M27.3,47.8c0-4,0-7.9,0-11.9c-1,0-2.8,0-2.9,0c0,4.2,0,8,0,11.9C25.3,47.8,26.3,47.8,27.3,47.8z
		 M10.8,47.9c1.6-0.3,2.9-1.2,2.7-3.2c-0.1-0.9-0.5-1.5-1.2-1.8c-0.6-0.3-1.4-0.5-2.2-0.8C9.8,42.1,9.4,42,9,41.9
		c-0.3-0.1-0.8-0.3-0.9-0.6c-0.1-0.4,0.2-0.6,0.5-0.8c0.6-0.2,1.5-0.1,1.8,0.4c0.1,0.1,0.1,0.2,0.1,0.4c0,0,0,0,0,0
		c0.8,0,2.8,0,2.8,0c-0.2-1.7-1.5-2.4-3.1-2.5c-1.9-0.2-3.5,0.2-4.3,1.2c-0.4,0.5-0.6,1.4-0.4,2.2c0.2,0.7,0.7,1.1,1.4,1.5
		c0.6,0.3,1.3,0.6,2.1,0.8c0.4,0.1,0.7,0.2,1.1,0.3c0.4,0.2,1,0.4,0.8,1c-0.3,0.7-1.6,0.8-2.2,0.4c-0.4-0.2-0.5-0.5-0.6-1
		c-0.9,0-1.9,0-2.9,0c0.2,1.8,1.4,2.6,3.1,2.9C9,48.1,10,48.1,10.8,47.9z M31,44.5c-0.1,0.2-0.2,0.4-0.2,0.6c0,0.6,0.4,1,1,1
		c1,0.1,1.7-0.5,1.7-1.4c0-0.4,0-0.7,0-1.1C32.8,44.1,31.6,43.9,31,44.5z M18.8,41.1c-0.5,0-0.9,0.3-1.1,0.6
		c-0.3,0.5-0.5,1.3-0.4,2.1c0,0.8,0.3,1.4,0.7,1.8c0.4,0.3,1,0.4,1.5,0.2c0.5-0.2,0.8-0.6,0.9-1c0.4-1,0.1-2.5-0.4-3.1
		C19.8,41.2,19.4,41,18.8,41.1z"/>
	<path id="damage_1_" class="st0" d="M59.9,53.1c0.8,0.9,1.1,2.1,1.1,3.8c-1.9,0-3.8,0-5.7,0c0,0.7,0.2,1.2,0.6,1.6
		c0.4,0.3,1.2,0.4,1.7,0.1c0.3-0.2,0.5-0.4,0.6-0.8c0.9,0,1.8,0,2.7,0c-0.4,1.6-1.5,2.6-3.2,2.9c-0.9,0.2-1.9,0.1-2.7-0.2
		c-1.4-0.5-2.4-1.7-2.5-3.5c-0.2-2,0.5-3.5,1.6-4.4c0.6-0.4,1.4-0.7,2.3-0.8C58,51.7,59.2,52.2,59.9,53.1z M58.3,55.3
		c-0.1-1.1-0.6-1.8-1.7-1.7c-0.9,0.1-1.3,0.8-1.4,1.7C56.2,55.4,57.3,55.4,58.3,55.3z M51.4,52c0,2.6,0,5.3,0,7.8
		c0,0.7,0,1.3-0.2,1.8c-0.4,1.5-1.8,2.2-3.6,2.3c-0.3,0-0.6,0-0.9,0c-2-0.1-3.4-0.8-3.6-2.7c0.9,0,1.8,0,2.8,0
		c0.1,0.1,0.1,0.2,0.1,0.3c0.3,0.5,1.5,0.6,2.1,0.3c0.8-0.4,0.7-1.4,0.7-2.5c-0.4,0.5-0.9,1-1.7,1.2c-0.9,0.2-1.9,0.1-2.5-0.3
		c-1.2-0.7-2-2.1-1.9-4c0.1-1.9,0.7-3.3,2-4c0.6-0.4,1.6-0.5,2.5-0.3c0.8,0.2,1.3,0.7,1.8,1.2c0-0.4,0-0.7,0-1.1
		C49.7,52,50.5,52,51.4,52z M48.6,57.1c0.2-0.8,0.1-1.8-0.2-2.4c-0.2-0.4-0.7-0.7-1.4-0.7c-0.4,0-0.6,0.1-0.8,0.3
		c-0.6,0.4-0.8,1.5-0.7,2.5c0.1,0.9,0.6,1.7,1.6,1.7C47.9,58.4,48.4,57.8,48.6,57.1z M42.1,60.2c0,0.1,0,0.2,0,0.3
		c-0.9,0-1.9,0-2.8,0c-0.1-0.3-0.1-0.5-0.1-0.8c-0.1,0-0.1,0.1-0.1,0.1c-0.7,0.6-1.7,1.2-3.1,1c-1.2-0.2-2.1-1-2.1-2.3
		c0-1.5,0.7-2.3,1.8-2.6c0.5-0.2,1.2-0.3,1.8-0.4c0.3-0.1,0.6-0.1,0.9-0.2c0.2-0.1,0.6-0.2,0.7-0.4c0.1-0.2,0-0.5-0.1-0.6
		c-0.2-0.4-0.9-0.5-1.4-0.4c-0.5,0.1-0.9,0.4-0.9,0.9c-0.9,0-1.7,0-2.6,0c0.3-1.9,1.6-2.7,3.6-2.8c2.1-0.1,3.6,0.5,3.9,2.2
		c0.1,0.9,0.1,1.9,0.1,3c0,0.5,0,1,0,1.5C41.6,59.2,41.7,59.9,42.1,60.2z M38.8,58.3c0.3-0.4,0.3-1.1,0.3-1.8c0,0,0,0,0,0
		c0,0,0,0,0,0c-0.6,0.4-1.8,0.3-2.3,0.8c-0.2,0.1-0.3,0.4-0.3,0.6c0,0.6,0.4,1,0.9,1C38,59,38.5,58.7,38.8,58.3z M30,51.8
		c-1.2,0-2,0.5-2.5,1.4c-0.4-0.9-1.3-1.4-2.6-1.4c-1.1,0.1-1.9,0.6-2.3,1.3c0-0.4,0-0.8,0-1.1c-0.9,0-1.8,0-2.7,0c0,2.8,0,5.6,0,8.4
		c0.9,0,1.8,0,2.7,0c0-1.2,0-2.3,0-3.6c0-1.2-0.1-2.4,0.7-2.9c0.4-0.2,1.1-0.2,1.4,0.1c0.5,0.5,0.4,1.9,0.4,2.9c0,1.1,0,2.2,0,3.3
		c0.8,0,1.6,0,2.4,0c0-1,0-2.1,0-3.2c0-1.6-0.2-3.4,1.3-3.4c0.5,0,0.8,0.2,1,0.5c0.2,0.4,0.2,0.8,0.2,1.4c0,1.6,0,3.1,0,4.7
		c0.9,0,1.8,0,2.7,0c0-1.3,0-2.5,0-3.8c0-1.3,0.1-2.6-0.3-3.5C32.1,52.3,31.3,51.8,30,51.8z M19,60.2c0,0.1,0,0.2,0,0.3
		c-0.9,0-1.9,0-2.8,0c-0.1-0.3-0.1-0.5-0.1-0.8c-0.2,0.2-0.4,0.3-0.6,0.5c-0.6,0.4-1.5,0.8-2.6,0.6c-1.2-0.2-2-1-2.1-2.4
		c0-1.5,0.7-2.2,1.8-2.6c0.8-0.3,1.9-0.3,2.7-0.6c0.3-0.1,0.6-0.2,0.7-0.4c0.1-0.2,0-0.5-0.1-0.6c-0.2-0.4-0.7-0.4-1.2-0.4
		c-0.6,0.1-1.1,0.4-1.2,0.9c-0.9,0-1.7,0-2.6,0c0.3-1.9,1.6-2.7,3.6-2.8c2.1-0.1,3.6,0.5,3.9,2.3c0.1,0.9,0.1,1.9,0.1,3
		c0,0.5,0,1,0,1.5C18.5,59.3,18.6,59.9,19,60.2z M15.6,58.4c0.4-0.4,0.3-1.1,0.3-1.9c0,0,0,0,0,0c0,0,0,0,0,0
		c-0.3,0.2-0.8,0.3-1.2,0.4c-0.5,0.1-1.1,0.2-1.3,0.6c-0.2,0.5,0.1,1.1,0.4,1.3C14.5,59.1,15.3,58.8,15.6,58.4z M9.6,49.2
		c0,3.7,0,7.5,0,11.2c-0.9,0-1.8,0-2.8,0c0-0.4,0-0.7,0-1.1c-0.4,0.5-0.9,1-1.7,1.2c-0.9,0.2-1.8,0-2.4-0.3c-1.2-0.7-1.9-2.1-1.9-4
		c0-1.9,0.7-3.3,1.9-4c0.6-0.4,1.5-0.6,2.4-0.4c0.8,0.2,1.4,0.6,1.8,1.2c0-1.3,0-2.6,0-3.9C7.8,49.2,7.9,49.2,9.6,49.2
		C9.6,49.2,9.6,49.2,9.6,49.2z M6.5,57.9c0.6-0.8,0.6-2.7,0-3.4c-0.3-0.3-0.7-0.6-1.3-0.6c-0.4,0-0.7,0.2-0.9,0.4
		c-0.4,0.3-0.5,0.8-0.6,1.4C3.6,57.1,4,58.3,5,58.5C5.7,58.6,6.2,58.4,6.5,57.9z"/>
</g>
</svg>
