<?xml version="1.0" encoding="utf-8"?>
<!-- Generator: Adobe Illustrator 21.1.0, SVG Export Plug-In . SVG Version: 6.00 Build 0)  -->
<svg version="1.1" xmlns="http://www.w3.org/2000/svg" xmlns:xlink="http://www.w3.org/1999/xlink" x="0px" y="0px"
	 viewBox="0 0 3500 3500" style="enable-background:new 0 0 3500 3500;" xml:space="preserve">
<style type="text/css">
	.st0{fill:#FFFFFF;}
</style>
<g id="Layer_2">
</g>
<g id="Layer_3">
	<g>
		<g>
			<path class="st0" d="M1074.6,2402.6c19,14.4,50.5,18.9,74.6,9.6c22-8.5,36.6-28,44.3-49.4c18-49.7,7.1-122.8-18.6-151.6
				c-13-14.5-31.4-24.1-63-22.2c-25,1.5-41.8,14.1-51.9,28.2c-15.9,22.3-22.8,61.4-20.7,99.2
				C1041.4,2354.7,1051.5,2385.1,1074.6,2402.6z"/>
			<path class="st0" d="M1703.3,2356.3c-6.7,7.5-10,17.1-10.1,29.2c-0.1,31.3,20.3,48.7,46.9,50.4c47.8,3,81.8-26.4,84.1-70
				c0-17.5,0-34.9,0-52.4C1791.2,2336.9,1729.2,2327.5,1703.3,2356.3z"/>
			<path class="st0" d="M290,1880.4v701.7h612.3c0-164.3,0-328.6,0-492.9c34.9,0,139,0,139,0s0,45,0,55.4
				c20.6-28.9,46.6-52.7,86.1-62.5c43.9-10.9,92.1-1.2,122.9,17.1c60.9,36.1,95.7,106.5,95.7,202c0,95.2-36.3,165.8-95.2,202.5
				c-30.8,19.2-77,28.4-121.9,18.1c-40.4-9.2-68-31.1-88.2-61c0.1-0.9-0.5-1-0.5-0.5c0,0.7,0,1.3,0,2c0,1.3,0,2.7,0,4
				c0,2.5,0,5,0,7.6c0,5.2,0,10.4,0,15.6c0,10.2,0,20.5,0,30.7c0,20.5,0,41.1,0,61.6h2043.3v-701.7H290z M727,2520
				c-40.6,8.1-89.1,9.1-132,2c-79.6-13.1-139-52.7-147.6-138.5c46.2,0,92.4,0,138.5,0c3,21.2,9.2,36.1,27.2,46.3
				c31.6,18,96.2,12.9,108.3-19.1c10.2-27.1-17.3-39-37.3-46.3c-17.4-6.4-35.6-10.5-52.9-15.1c-35.1-9.4-70-20.8-99.2-36.3
				c-30.3-16.1-56.7-35.4-65.5-70.5c-9.9-39.4,1.4-82.1,21.2-107.3c39-49.8,116.1-68.8,207.6-58.9c79.5,8.6,141,40.6,150.1,121.4
				c0,0.3,0,0.7,0,1c-44.3,0-88.7,0-133,0c0-0.2,0-0.3,0-0.5c-2-6.2-2.7-11.5-6-17.1c-13.2-22.5-56.5-30.5-84.6-19.1
				c-12.5,5.1-26.4,15.8-22.7,36.3c2.7,14.7,25.8,25,41.3,30.7c18.3,6.8,39,11.1,55.4,16.1c36.9,11.2,76.3,21.2,106.8,36.3
				c30.8,15.2,53.6,43.8,56.9,86.1C866.7,2460.5,802.6,2504.9,727,2520z M1520.9,2512.5c-46,0-92,0-138,0
				c0-528.3-0.5-572.9-0.5-573.3c45.8,0,92.7,0,138.6,0C1520.9,2130.8,1520.9,2321.3,1520.9,2512.5z M1977.3,2512.5
				c-11.5,0-120.8,0-141.6,0c-3.2-13.3-5.2-27.7-7.1-42.3c-1.6-1.1-2.2,1.4-3,2c-18.4,15.7-37.7,31.2-63,41.3
				c-26.7,10.7-59.8,16.6-96.2,11.1c-62.2-9.5-101.6-48.7-104.8-117.4c-3.4-73.3,36.9-112.5,90.7-131c40.5-13.9,93.5-16.2,137-29.7
				c12.5-3.9,30.8-9.6,34.3-21.2c2.6-8.8,0.9-22.2-1.5-28.7c-8.3-22.1-42.2-26.7-71.5-22.2c-27.8,4.3-44.3,19.3-49.4,45.8
				c-41.7,0-88.4-0.1-128-0.1c9.6-69.4,48.1-110.5,107.3-129.3c58.3-18.5,150.9-16.6,203,8.1c27.8,13.2,47.3,31.5,58.9,58.9
				c12.1,28.6,13.6,64.7,13.6,104.3c0,36.8,0,77.2,0,117.9c0,39.5-5.2,93.6,15.6,112.8c1.5,1.4,4.2,2.2,5.5,5
				C1977.3,2502.7,1977.3,2507.6,1977.3,2512.5z M2370.8,2472.7c-45.3,45.3-136.6,64-228.2,49.4c-79.7-12.7-139.3-52.9-148.1-138.5
				c46,0,92.4,0,138.5,0c2.7,37.7,30.5,55.7,71,55.9c25.6,0.1,51.4-5.4,62-23.7c3.2-5.5,5.3-14.8,3.5-22.7
				c-3.2-14.5-23.7-23.5-38.8-29.2c-16.4-6.2-36.2-10.5-52.9-15.1c-35.2-9.7-70.1-21.1-99.2-36.3c-31.1-16.2-56.2-35.6-65-71
				c-10-40.2,2-81.2,21.7-106.8c38.3-49.8,117.5-68.9,208.1-58.4c79,9.2,140.1,40.5,149.1,122.4c-43.8,0-89.1-0.2-132.9-0.2
				c0,0,0.2,0.3-0.6-0.8c-3.3-14.1-8.8-25.2-21.2-32.2c-19.4-11-56-11.6-74.6-1.5c-10.2,5.5-20.3,18.1-17.1,33.8
				c3.1,15.1,24.9,25.4,40.8,31.2c18.4,6.7,39.3,11.4,55.4,16.1c37.4,10.9,76.2,21.2,106.8,36.3c32.5,15.9,54.1,44.7,57.9,85.6
				C2411.4,2413.9,2395.4,2448,2370.8,2472.7z M2853.4,2512.5c-46.2,0-92.4,0-138.5,0c0,0,0,0,0,0c0-73.5-0.5-223.1-0.5-223.1
				s0.4-63.3-11.6-84.1c-14.4-25-62.3-27.2-86.6-10.1c-23.8,16.7-30.2,59.1-30.2,88.7c0,17.1,0.4,152.2,0.4,228.6
				c-45.8,0-92.2,0.1-138.4,0.1c0.3-191.1,0-383.1,0-573.3c46.2,0,92.4,0,138.5,0c0,68,0,136,0,204c27.6-35.6,63.7-65.5,125.9-65.5
				c63.3,0,104.9,21,125.9,66c20.9,44.7,15.1,112.9,15.1,176.8C2853.4,2385.1,2853.4,2449.1,2853.4,2512.5z"/>
		</g>
		<g id="XMLID_2_">
			<g>
				<path class="st0" d="M536.5,2586.4c0,0.1,0,0.2,0,0.3c0,61.9,0,123.7,0,185.6c-18.9-28.9-45.6-50-84.6-58.4
					c-43.6-9.4-87.5-0.7-117.4,17.6c-56.1,34.4-90.7,104.2-90.7,195c0,92.2,32.5,159.9,91.2,194.5c29.8,17.5,75.9,26.4,118.4,16.6
					c37.6-8.7,63.4-33,82.6-58.9c0,17.1,0,34.3,0,51.4c44.7,0,89.3,0,134,0c0-181.2,0-362.4,0-543.6c0-0.1,0-0.2,0-0.3H549.5
					C545.2,2586.2,540.8,2586.3,536.5,2586.4z M518.4,3006.5c-14.7,20.8-40.7,31.3-70.5,26.7c-53-8.1-71.7-67.7-65-131.5
					c3.1-29.7,11.9-52.7,29.2-69.5c9.6-9.3,23-16.1,42.3-17.6c28.4-2.2,50.6,10.5,63,26.7C545.5,2878.3,545.7,2967.9,518.4,3006.5z"
					/>
				<path class="st0" d="M1100.3,3039.3c0-25.2,0-50.1,0-74.1c0-50.8,2.2-100.4-4-144.1c-12.2-85.3-88.2-113.5-188.4-108.8
					c-100.9,4.7-163.8,42.5-176.3,136c41.1,0,82.3,0,123.4,0c4.7-27.8,25.2-42.3,56.4-44.8c24.5-2,49.5,1.8,58.4,19.1
					c3.1,6,5.6,19.8,3,29.2c-3.1,11.3-19.9,17.4-32.2,21.2c-42,12.9-92.6,15.5-132,28.2c-52.6,16.9-89.9,54.8-88.2,125.4
					c1.6,66.2,40.9,105.5,99.2,114.4c53.9,8.2,97.4-7.4,128-28.2c11.1-7.6,19.9-15.9,29.7-23.2c1.6,14.2,3.7,27.9,7.1,40.3
					c45.3,0,90.7,0,136,0c0-5,0-10.1,0-15.1C1101.3,3101.6,1100.3,3071.9,1100.3,3039.3z M957.7,3030.2
					c-15.3,17.5-55.3,35.3-86.1,20.2c-18-8.8-31.3-36.3-20.7-61.5c8.2-19.4,36.2-26.6,61-31.2c22.2-4.2,43.1-9.7,59.9-18.1
					c0-0.5,0.6-0.4,1-0.5c0.1-0.6,0.5-0.3,0.5,0C973.6,2978.5,976.3,3008.9,957.7,3030.2z"/>
				<path class="st0" d="M1654.9,2711.8c-58.9,0.3-95.7,26.5-119.4,65.5c-18.9-44.3-63-68.5-127.5-65.5
					c-55.2,2.6-90.1,30.5-111.3,64.5c0-18.1,0-36.3,0-54.4c-43,0-86,0-129,0c0,136,0,272,0,408.1c43.7,0,87.3,0,131,0
					c0-56,0-111.9,0-171.8c0-58.3-3-117.9,34.3-138c19.9-10.7,55-8.3,69.5,6.5c24.8,25.3,17.6,92.6,17.6,142.6
					c0,54.5,0,107.5,0,160.7c39.5,0,78.9,0,118.4,0c0-49.8,0-102.5,0-154.2c0-75.9-9.7-164,65-162.2c22.4,0.5,38.3,7.9,46.9,25.7
					c8.3,17.4,9.1,40.5,9.1,65.5c0,76.1,0,150.8,0,225.2c43.7,0,87.3,0,131,0c0-60.8,0-122.4,0-184.4c0-61.7,5.1-127-15.1-169.8
					C1755.4,2733.5,1715.5,2711.5,1654.9,2711.8z"/>
				<path class="st0" d="M2562.7,2721.9c0,17.6,0,35.3,0,52.9c-20.7-27.4-46-49.6-84.6-58.9c-42.1-10.2-88.8-3.5-119.9,13.6
					c-61.1,33.5-92.8,98.8-95.7,190.9c-2.9,92.2,35,160.8,93.2,194c30.4,17.3,77.7,24.7,119.9,14.6c37.7-9,64.1-32.6,83.1-58.9
					c0.6,53.5,3.2,104.3-33.3,121.9c-30.2,14.6-83.9,11.4-100.8-15.1c-2.6-4.1-3.5-8.1-6-12.6c-44.5,0-89,0-133.5,0
					c11.8,89.9,78.7,124.8,175.8,129.5c14.6,0,29.2,0,43.8,0c4.7-0.3,9.3-0.7,13.8-1.1c81.1-8,140.7-40.8,160.5-109.2
					c6.8-23.5,9.1-53.6,9.1-85.1c0-121.2,1-252.6,0.5-376.3C2646.7,2721.9,2604.7,2721.9,2562.7,2721.9z M2552.1,2966.2
					c-8.8,33.8-32.5,62.4-74.6,62.5c-47.5,0.1-69.3-37.3-75.1-80.6c-6.6-49.8,4.4-98.8,32.7-119.9c9.8-7.3,23.3-11.5,40.3-12.6
					c32.6-2.1,55.1,13,66.5,33.8C2558.3,2878.9,2561.8,2929.1,2552.1,2966.2z"/>
				<path class="st0" d="M3099.2,2772.8c-36.4-41.9-91.2-68.3-172.3-64.5c-44.8,2.1-82.5,16.3-110.8,37.3
					c-55.8,41.4-85.9,114-77.6,212.1c7.4,86.9,52.3,146.2,121.4,171.3c36.5,13.2,83.8,17.8,129.5,10.1c81.4-13.8,133.3-62,154.7-138
					c-42.8,0-85.6,0-128.5,0c-6.3,16.7-15,29.3-29.7,36.8c-24.5,12.4-63.5,10.1-83.1-4.5c-20.7-15.4-28.1-42.8-28.2-75.6
					c91.9,0,183.7,0,275.6,0C3154.8,2876.6,3136.2,2815.3,3099.2,2772.8z M2870.5,2882.1c5.6-44.5,23.1-79.8,68.5-83.1
					c54.8-4,80.7,31.1,83.1,82.6C2972.3,2882.5,2921.1,2882,2870.5,2882.1z"/>
				<path class="st0" d="M2216.6,3036.8c0-25.4,0-49.7,0-73.6c0-50.1,3-100.3-4-143.6c-13.6-84.1-88.2-112-188.4-107.3
					c-101,4.7-163.2,43-176.3,136c41.1,0,82.3,0,123.4,0c4.4-23.6,20.9-39.4,45.8-43.8c25.8-4.6,59.7-0.4,69,18.6
					c3.3,6.7,6.1,20.7,2.5,30.2c-4.1,11.2-20.9,16.5-32.7,20.2c-14.8,4.6-29.3,6.4-44.3,9.1c-30.3,5.3-62,10.7-87.7,19.1
					c-52.6,17.4-88.9,55.2-87.2,126.4c1.6,66.4,41.3,104,100.8,112.8c67.1,10,117-15.9,149.6-46.3c1.8-1.7,3.4-5.6,6.5-5
					c1.7,14.1,4.2,27.4,7.1,40.3c45.5,0,91,0,136.5,0c0-5,0-10.1,0-15.1C2217,3101.8,2216.6,3070.3,2216.6,3036.8z M2077.1,3025.7
					c-14.5,19.5-37.9,32-69.5,29.7c-25.5-1.9-44-20.2-43.8-48.4c0.1-13,5.2-23.7,12.6-30.2c25.8-22.7,81.7-18.2,111.8-37.3
					c0-0.5,0.6-0.4,1-0.5c0.1-0.6,0.5-0.3,0.5,0C2089.7,2974.8,2092.8,3004.6,2077.1,3025.7z"/>
			</g>
			<g>
				<path class="st0" d="M1956.2,673.6c-3.5-0.4-11.4,2.3-17.1,3.5c-85.2,17.7-174.8,37.7-257.4,54.9
					c-59.4-54.3-117.2-110.2-176.8-164.2c-37.2,6.5-73.7,13.6-111.3,19.6c5.3,8.3,13.7,14.2,20.7,21.2c21.5,21.5,43,42.5,64.5,64
					c26.7,26.7,55.3,52.8,81.6,79.1c1.3,1.3,4.3,3.2,3.5,5.5c-105.1,22.3-210.1,44.8-314.9,67.5c21.7,25.5,45.5,53.3,69.5,78.1
					c106.4-24.6,213.3-48.6,319.9-73c35,33.1,70,67,104.3,101.3c25.7,25.7,51.4,52.1,77.6,76.6c8.8,8.2,17,17.2,26.7,24.2
					c40.4-10.5,79.7-22.1,119.9-32.7c-33.8-32.6-70-64.8-105.3-97.7c-30.8-28.7-62.6-57.2-92.2-86.1c-4.2-4.1-8.8-7.8-12.1-12.6
					c92.5-21.1,185.3-42.1,278.1-63c-20.1-19.5-45.8-38.7-68.5-57.9C1963.3,678.7,1959.6,673.9,1956.2,673.6z"/>
				<path class="st0" d="M3164.7,1101.3c-71.6-49.6-143.3-100.5-215.1-150.6c-2.6-1.8-4.8-5.5-8.6-5c4.8,37.6,11.8,75.9,16.1,112.3
					c-153.7-36.5-308.2-72.3-461.5-109.3c-8.6-84.8-45-146.6-89.2-198.5c-131.7-154.8-328.4-247.6-552.1-309.8
					c20.8-47.6,40-96.7,61-144.1c52.7,11.9,105.6,23.7,158.7,35.3c-52.4-39.7-110.6-78.2-164.2-118.4c-1.7,0-3.4,0-5,0
					c-74.5,10.5-150.5,19.5-225.7,29.2c51.1,13,104.3,24,156.7,35.8c-22.6,48-44.6,96.5-68,143.6c-146.2-31.3-338.1-41.1-500.8-16.6
					c-138.7,20.9-255.4,61.5-347.6,130c-6.2,4.6-12.4,9.4-19.1,15.1c-4.9,4.2-14.8,14.8-18.6,15.1c-2.6,0.2-8.1-2.4-12.6-3.5
					c-131.5-31.3-261.7-62-392.9-93.7c-0.9-1.2,2.3-3.5,4-5c28.4-24.7,59.3-50.9,87.2-76.6c-116.9,15.2-233.6,30.7-350.6,45.8
					c0,0.5,0,1,0,1.5c33.8,56.9,67.5,113.9,101.8,170.3c9.5-6.3,18-14.7,27.2-22.7c22.3-19.3,43.5-38.6,67-58.9
					c4-3.5,9.8-10.8,14.1-11.1c2.8-0.2,8.3,2.3,13.1,3.5c132.9,33.5,271.7,64,403,96.7c-22.3,32-40.8,68.4-47.9,114.9
					c-7.8,51.3,2.8,101.1,17.6,139.5c29.6,76.4,82.6,136.9,138.5,185.9c115.3,101,261.8,173,427.2,222.2
					c-57.4,128.7-113.7,258.4-171.3,386.9c-93.4-25.5-188.4-49.4-281.6-75.1c-0.7,2.6,2.7,6.1,4.5,9.1
					c59.9,95.6,122.7,192.6,183.4,288.2c0.2,0.2,0.3,0.5,0.5,0.7c17.6,25.1,32.9,52.6,50.9,77.4c65.9-26.1,131.8-52.2,198.6-77.4
					c0.6-0.2,1.3-0.5,1.9-0.7c90.8-36.6,183.9-71,274.1-108.3c-96.8-25.1-192.7-51.1-289.7-76.1c51.2-131.1,102-262.7,153.7-393.4
					c92.3,21.3,194.9,31.2,305.3,34.3c108.8,3,217.3-10,306.3-32.2c89.5-22.4,172-54.6,238.8-100.8c66.9-46.2,122.1-106.6,139.5-200
					c157.3,38.3,316.3,74.9,473.5,113.3c6.7,43.7,12.7,88,19.6,131.5c84.6-32.1,168.4-65,252.9-97.2
					C3215.3,1135.6,3189.8,1118.6,3164.7,1101.3z M2298.2,960.7c-18.9,61.8-61.3,104.4-111.8,137c-49.7,32.2-112.4,56.2-177.8,71
					c-66.7,15.2-144.9,23.7-225.2,23.7c-80.3,0-157.2-10.2-225.7-23.2c19.6-49.9,39.6-99.4,59.4-149.1c-39.4-7-77.2-15.5-111.3-27.7
					c-22.9,48.5-44.5,98.2-67,147.1c-120.1-37.3-229.3-89.1-314.9-162.7c-41.4-35.6-82-78.4-106.8-132c-12.5-27-22.2-58.8-22.2-97.2
					c0-37.2,11.6-66.6,26.2-92.7c73.8,17.1,146.3,35.4,220.1,52.4c4.5-9.1,9-18,14.6-26.2c5.6-8.2,11.9-15.5,17.1-22.7
					c-71.6-16.6-142.4-33.9-213.6-50.9c-1.3-2.3,2-3.5,3-4.5c46.6-46.6,112.7-78.5,184.4-100.3c66.5-20.1,140-31.9,223.2-34.3
					c95.2-2.7,184.9,5.2,266,21.2c-13.6,30.3-27.5,60.2-41.3,90.2c31.9,6.1,63.8,12.1,92.2,21.7c14-29.3,25.5-61.2,38.8-91.2
					c113.1,30.6,215.7,75.8,301.3,135.5c42.6,29.7,82.2,63,114.9,103.8c32.4,40.4,60.3,87.6,64,154.2
					c-76.7-17.6-152.6-36.2-229.2-53.9c-0.1,22.6-5.6,39.8-13.1,54.9C2142,923.2,2220.3,941.7,2298.2,960.7z"/>
			</g>
		</g>
		<g>
			<path class="st0" d="M3283.4,1753.4c0,26.2-9.3,48.6-27.8,67.2c-18.6,18.6-41,27.8-67.2,27.8c-26.2,0-48.6-9.3-67.2-27.8
				c-18.6-18.6-27.8-41-27.8-67.2c0-26.2,9.3-48.6,27.8-67.2c18.6-18.6,41-27.8,67.2-27.8c26.2,0,48.6,9.3,67.2,27.8
				C3274.1,1704.8,3283.4,1727.2,3283.4,1753.4z M3262.4,1753.4c0-20.4-7.2-38-21.7-52.7c-14.5-14.7-31.9-22-52.3-22
				c-20.4,0-37.9,7.3-52.3,22c-14.5,14.7-21.7,32.2-21.7,52.7c0,20.4,7.2,38,21.7,52.7c14.5,14.7,31.9,22,52.3,22
				c20.4,0,37.9-7.3,52.3-22C3255.1,1791.4,3262.4,1773.8,3262.4,1753.4z M3241.7,1798.4h-29.8l-28.7-34.7h-9.4v34.7h-23.3v-94.6
				h35.9c6.7,0,12,0.3,16,0.8c4,0.5,8,1.8,12,4c4.3,2.4,7.5,5.3,9.5,8.8c2,3.4,3,7.7,3,12.9c0,6.9-1.9,12.6-5.8,17
				c-3.9,4.5-8.9,7.9-15.2,10.4L3241.7,1798.4z M3201.1,1731.9c0-2-0.4-3.8-1.3-5.4c-0.8-1.6-2.3-3-4.2-4c-1.8-1-3.9-1.7-6.3-1.9
				c-2.4-0.3-5.1-0.4-8.1-0.4h-7.4v26.6h5.6c3.9,0,7.2-0.3,10-0.8c2.8-0.5,5-1.5,6.7-2.8c1.7-1.2,2.9-2.8,3.7-4.6
				C3200.7,1736.8,3201.1,1734.6,3201.1,1731.9z"/>
		</g>
	</g>
</g>
</svg>
