<svg xmlns="http://www.w3.org/2000/svg" viewBox="0 0 3066.71 3080.57"><defs><style>.a{fill:#ff510d;}.b{fill:#fff;}</style></defs><title>SD-logo-white-orange</title><path class="a" d="M1074.57,2402.64c19,14.44,50.53,18.86,74.56,9.57,22-8.49,36.62-28,44.33-49.37,18-49.74,7.08-122.82-18.64-151.63-13-14.52-31.43-24.08-63-22.17-25,1.51-41.81,14.09-51.89,28.21-15.94,22.34-22.75,61.41-20.65,99.24C1041.42,2354.73,1051.46,2385.1,1074.57,2402.64Z" transform="translate(-216.64 -213.11)"/><path class="a" d="M1703.28,2356.29c-6.71,7.46-10,17.07-10.08,29.22-.08,31.25,20.32,48.73,46.85,50.38,47.8,3,81.76-26.37,84.13-70v-52.39C1791.15,2336.89,1729.19,2327.49,1703.28,2356.29Z" transform="translate(-216.64 -213.11)"/><path class="a" d="M290,1880.44v701.73H902.28V2089.29h139v55.41c20.62-28.95,46.64-52.66,86.15-62.47,43.95-10.91,92.07-1.17,122.92,17.13,60.91,36.13,95.72,106.5,95.72,202,0,95.16-36.28,165.77-95.21,202.52-30.82,19.22-77,28.4-121.91,18.14-40.37-9.24-68-31.06-88.16-61,.14-.9-.47-1-.5-.5v121.6h2043.3V1880.44ZM727,2520c-40.58,8.12-89.13,9.1-132,2-79.61-13.15-139-52.68-147.61-138.54H585.91c3,21.17,9.2,36.12,27.2,46.35,31.65,18,96.19,12.92,108.31-19.14,10.25-27.1-17.34-39-37.28-46.35-17.37-6.38-35.63-10.48-52.9-15.12-35.08-9.42-70-20.8-99.24-36.27-30.31-16.06-56.69-35.45-65.49-70.53-9.88-39.41,1.4-82.1,21.16-107.3,39-49.78,116.07-68.84,207.55-58.94,79.54,8.61,141,40.58,150.12,121.41v1h-133v-.5c-2-6.19-2.73-11.48-6-17.13-13.22-22.48-56.51-30.5-84.63-19.14-12.53,5.06-26.41,15.82-22.67,36.27,2.7,14.74,25.82,25,41.31,30.73,18.28,6.76,39,11.14,55.41,16.12,36.86,11.16,76.34,21.21,106.8,36.27,30.79,15.23,53.61,43.76,56.93,86.14C866.74,2460.5,802.59,2504.88,727,2520Zm793.95-7.56h-138c0-528.26-.52-572.86-.53-573.29h138.56Zm456.42,0H1835.77c-3.19-13.27-5.23-27.68-7.05-42.32-1.65-1.07-2.25,1.36-3,2-18.43,15.74-37.73,31.19-63,41.31a183.93,183.93,0,0,1-96.22,11.08c-62.21-9.49-101.64-48.72-104.79-117.38-3.36-73.27,36.9-112.51,90.68-131,40.48-13.9,93.54-16.24,137-29.72,12.54-3.88,30.82-9.64,34.26-21.16,2.61-8.78.93-22.22-1.51-28.71-8.29-22.08-42.16-26.69-71.54-22.17-27.76,4.27-44.33,19.27-49.37,45.84-41.73,0-88.39-.13-128-.13,9.63-69.44,48.06-110.49,107.3-129.33,58.28-18.54,150.93-16.63,203,8.06,27.76,13.15,47.32,31.49,58.94,58.94,12.11,28.6,13.6,64.7,13.6,104.28V2380c0,39.49-5.19,93.62,15.62,112.84,1.54,1.43,4.17,2.19,5.54,5Zm393.45-39.8c-45.34,45.35-136.62,64-228.21,49.37-79.73-12.7-139.31-52.94-148.11-138.54H2133c2.72,37.67,30.47,55.7,71,55.92,25.65.14,51.36-5.36,62-23.68,3.17-5.47,5.28-14.8,3.53-22.67-3.23-14.5-23.68-23.5-38.79-29.22-16.36-6.19-36.21-10.52-52.9-15.11-35.23-9.7-70.14-21.08-99.24-36.27-31.07-16.21-56.16-35.64-65-71-10-40.15,2-81.24,21.66-106.8,38.27-49.8,117.53-68.95,208.06-58.44,79,9.17,140.12,40.48,149.12,122.42-43.78,0-89.11-.21-132.9-.21,0,0,.16.27-.6-.8-3.3-14.11-8.83-25.24-21.16-32.24-19.44-11-56-11.55-74.56-1.51-10.18,5.52-20.31,18.05-17.13,33.75,3.06,15.13,24.91,25.44,40.81,31.23,18.41,6.71,39.26,11.42,55.41,16.12,37.36,10.89,76.18,21.24,106.8,36.27,32.45,15.92,54.11,44.71,57.93,85.64C2411.45,2413.9,2395.43,2448,2370.78,2472.66Zm482.62,39.8H2714.85v0c0-73.47-.5-223.13-.5-223.13s.4-63.27-11.58-84.13c-14.38-25-62.31-27.2-86.65-10.07-23.78,16.74-30.23,59.09-30.23,88.66,0,17.08.36,152.24.36,228.65-45.84,0-92.18.06-138.39.06.34-191.1,0-383.06,0-573.29h138.54v204c27.65-35.58,63.7-65.49,125.94-65.49,63.34,0,104.86,21,125.95,66,20.93,44.66,15.11,112.9,15.11,176.82Q2853.41,2417.36,2853.39,2512.46Z" transform="translate(-216.64 -213.11)"/><path class="b" d="M536.54,2586.38v185.89c-18.94-28.95-45.57-50-84.63-58.44-43.55-9.42-87.49-.68-117.38,17.63-56.11,34.39-90.68,104.23-90.68,195,0,92.18,32.47,159.87,91.18,194.46,29.76,17.53,75.95,26.42,118.39,16.62,37.59-8.67,63.43-33,82.62-58.94V3130H670V2586.1H549.5Q543,2586.21,536.54,2586.38ZM518.4,3006.53c-14.66,20.8-40.72,31.27-70.53,26.7-53-8.14-71.72-67.75-65-131.49,3.14-29.75,11.85-52.7,29.22-69.52,9.57-9.27,23-16.12,42.32-17.63,28.42-2.22,50.61,10.45,63,26.7C545.53,2878.27,545.66,2967.87,518.4,3006.53Z" transform="translate(-216.64 -213.11)"/><path class="b" d="M1100.26,3039.28v-74.06c0-50.79,2.23-100.39-4-144.08-12.22-85.27-88.19-113.48-188.41-108.81C806.95,2717,744,2754.8,731.5,2848.34H854.92c4.72-27.81,25.18-42.32,56.42-44.83,24.52-2,49.53,1.8,58.44,19.14,3.1,6,5.59,19.81,3,29.22-3.08,11.32-19.9,17.37-32.24,21.16-42,12.89-92.6,15.55-132,28.21-52.65,16.93-89.85,54.84-88.16,125.44,1.59,66.22,40.94,105.49,99.24,114.36,53.87,8.19,97.39-7.4,128-28.21,11.13-7.58,19.94-15.9,29.72-23.17,1.61,14.18,3.69,27.88,7.05,40.3h136v-15.11C1101.31,3101.55,1100.26,3071.93,1100.26,3039.28Zm-142.57-9.07c-15.28,17.47-55.31,35.31-86.14,20.15-18-8.83-31.32-36.31-20.66-61.46,8.24-19.43,36.23-26.55,61-31.23,22.2-4.2,43.05-9.68,59.95-18.14,0-.49.62-.39,1-.5.09-.57.5-.28.5,0C973.64,2978.49,976.3,3008.93,957.69,3030.21Z" transform="translate(-216.64 -213.11)"/><path class="b" d="M1654.92,2711.82c-58.9.32-95.74,26.46-119.39,65.49-18.93-44.34-63-68.53-127.46-65.49-55.19,2.61-90.06,30.49-111.33,64.48V2721.9h-129V3130h131V2958.17c0-58.29-3-117.89,34.26-138,19.89-10.74,55-8.29,69.52,6.55,24.8,25.29,17.64,92.58,17.63,142.57,0,54.46,0,107.55,0,160.7h118.39V2975.8c0-75.88-9.71-164,65-162.21,22.38.54,38.32,7.92,46.85,25.69,8.35,17.37,9.07,40.53,9.07,65.49V3130h131V2945.57c0-61.66,5.08-127-15.11-169.77C1755.37,2733.52,1715.49,2711.5,1654.92,2711.82Z" transform="translate(-216.64 -213.11)"/><path class="b" d="M2562.72,2721.9v52.9c-20.71-27.4-46-49.6-84.63-58.94-42.05-10.18-88.77-3.47-119.9,13.6-61.09,33.52-92.83,98.81-95.72,190.93s35,160.8,93.2,194c30.39,17.31,77.67,24.7,119.9,14.61,37.74-9,64.1-32.61,83.12-58.94.58,53.45,3.22,104.27-33.25,121.91-30.19,14.61-83.91,11.38-100.75-15.11-2.61-4.11-3.55-8.09-6-12.6h-133.5C2297,3254.14,2363.88,3289,2461,3293.68h43.83q7-.45,13.78-1.12c81.09-8,140.75-40.78,160.53-109.21,6.8-23.52,9.07-53.6,9.07-85.14,0-121.22,1-252.58.5-376.32Zm-10.58,244.33c-8.75,33.77-32.55,62.37-74.56,62.47-47.47.11-69.3-37.27-75.06-80.6-6.62-49.8,4.43-98.76,32.74-119.9,9.79-7.31,23.35-11.5,40.3-12.6,32.63-2.1,55.09,13,66.5,33.75C2558.26,2878.88,2561.76,2929.1,2552.14,2966.23Z" transform="translate(-216.64 -213.11)"/><path class="b" d="M3099.23,2772.78c-36.36-41.85-91.24-68.31-172.29-64.48-44.77,2.11-82.51,16.25-110.83,37.28-55.75,41.4-85.91,114-77.58,212.09,7.38,86.94,52.29,146.19,121.41,171.28,36.47,13.24,83.84,17.84,129.47,10.08,81.37-13.84,133.34-62,154.66-138H3015.61c-6.34,16.74-15,29.32-29.72,36.77-24.53,12.39-63.5,10.12-83.12-4.53-20.66-15.42-28.12-42.83-28.21-75.57h275.56C3154.76,2876.62,3136.16,2815.28,3099.23,2772.78ZM2870.52,2882.1c5.57-44.53,23.08-79.78,68.51-83.12,54.8-4,80.68,31.12,83.12,82.62C2972.3,2882.46,2921.12,2882,2870.52,2882.1Z" transform="translate(-216.64 -213.11)"/><path class="b" d="M2216.62,3036.76c0-25.44,0-49.7,0-73.55,0-50.07,3-100.32-4-143.58-13.62-84.08-88.22-112-188.41-107.3-101,4.69-163.19,43-176.32,136h123.43c4.41-23.63,20.88-39.38,45.84-43.83,25.83-4.59,59.73-.37,69,18.64,3.27,6.69,6.06,20.66,2.52,30.23-4.14,11.2-20.91,16.49-32.74,20.15-14.76,4.56-29.31,6.42-44.33,9.07-30.28,5.33-62,10.65-87.66,19.14-52.6,17.41-88.86,55.22-87.15,126.45,1.59,66.44,41.31,104,100.76,112.84,67.12,10,117-15.92,149.62-46.35,1.79-1.66,3.36-5.56,6.55-5a391.66,391.66,0,0,0,7.05,40.3h136.52v-15.11C2217,3101.8,2216.63,3070.26,2216.62,3036.76Zm-139.54-11.08c-14.55,19.48-37.87,32-69.52,29.72-25.51-1.85-44-20.2-43.83-48.36.07-13,5.16-23.67,12.59-30.23,25.78-22.74,81.69-18.24,111.84-37.28,0-.49.62-.39,1-.5.09-.57.51-.28.5,0C2089.71,2974.83,2092.82,3004.59,2077.08,3025.67Z" transform="translate(-216.64 -213.11)"/><path class="a" d="M1956.17,673.56c-3.47-.37-11.44,2.34-17.13,3.53-85.21,17.72-174.8,37.69-257.43,54.91-59.41-54.27-117.16-110.21-176.82-164.23-37.18,6.48-73.73,13.59-111.33,19.65,5.28,8.33,13.69,14.2,20.66,21.16,21.52,21.52,43,42.53,64.48,64,26.71,26.71,55.31,52.8,81.61,79.09,1.25,1.25,4.26,3.18,3.53,5.54q-157.65,33.52-314.86,67.51c21.74,25.45,45.45,53.3,69.52,78.09,106.42-24.56,213.31-48.65,319.9-73,35,33.1,70,67,104.28,101.26,25.69,25.69,51.37,52.13,77.58,76.57,8.79,8.2,17,17.15,26.7,24.18,40.36-10.52,79.66-22.1,119.9-32.74-33.83-32.6-70-64.81-105.29-97.73-30.77-28.7-62.58-57.16-92.19-86.15-4.17-4.08-8.78-7.79-12.09-12.59q138.82-31.71,278.08-63c-20.13-19.5-45.77-38.67-68.51-57.93C1963.33,678.72,1959.57,673.92,1956.17,673.56Z" transform="translate(-216.64 -213.11)"/><path class="b" d="M3164.72,1101.26c-71.59-49.57-143.31-100.51-215.11-150.63-2.58-1.8-4.77-5.5-8.56-5,4.84,37.65,11.75,75.91,16.12,112.34C2803.45,1021.4,2649,985.6,2495.71,948.62c-8.59-84.77-45-146.59-89.17-198.49-131.66-154.81-328.43-247.57-552.14-309.82,20.77-47.58,40-96.74,61-144.08q79.06,17.91,158.69,35.26c-52.44-39.69-110.59-78.21-164.23-118.39h-5c-74.51,10.46-150.47,19.47-225.69,29.22,51.13,13,104.26,24,156.67,35.77-22.55,48-44.6,96.45-68,143.58C1621.54,390.37,1429.63,380.6,1267,405c-138.72,20.86-255.39,61.5-347.6,130-6.2,4.61-12.42,9.36-19.14,15.11-4.93,4.23-14.78,14.83-18.64,15.11-2.59.19-8.07-2.45-12.59-3.53-131.55-31.29-261.69-62-392.94-93.7-.92-1.21,2.27-3.51,4-5,28.45-24.72,59.29-50.88,87.15-76.57q-175.41,22.84-350.63,45.84v1.51C250.47,490.62,284.12,547.64,318.4,604c9.52-6.33,18-14.68,27.2-22.67,22.32-19.34,43.55-38.62,67-58.94,4-3.47,9.81-10.76,14.11-11.08,2.79-.21,8.27,2.31,13.1,3.53,132.87,33.47,271.71,64,403,96.72C820.5,643.55,802.06,680,795,726.45c-7.83,51.31,2.76,101.12,17.63,139.54,29.57,76.38,82.63,136.93,138.54,185.89,115.33,101,261.81,173,427.2,222.16-57.37,128.69-113.72,258.4-171.28,386.9-93.38-25.51-188.39-49.39-281.61-75.06-.67,2.61,2.66,6.07,4.53,9.07,59.95,95.62,122.67,192.58,183.37,288.16l.5.71c17.63,25.12,32.9,52.6,50.89,77.37,65.88-26.11,131.76-52.22,198.6-77.37l1.9-.71c90.84-36.6,183.92-71,274.05-108.31-96.82-25.09-192.72-51.11-289.67-76.07,51.24-131.13,102-262.7,153.65-393.45,92.3,21.27,194.9,31.19,305.29,34.26,108.81,3,217.27-10,306.29-32.24,89.55-22.37,172-54.58,238.79-100.75s122.09-106.64,139.54-200c157.31,38.32,316.33,74.94,473.55,113.35,6.67,43.71,12.74,88,19.65,131.49,84.56-32.15,168.42-65,252.89-97.23C3215.32,1135.64,3189.84,1118.65,3164.72,1101.26ZM2298.24,960.71c-18.86,61.83-61.34,104.38-111.84,137-49.75,32.17-112.35,56.15-177.83,71-66.71,15.16-144.92,23.68-225.19,23.68s-157.16-10.17-225.69-23.17c19.57-49.95,39.65-99.39,59.44-149.12-39.38-7-77.18-15.52-111.33-27.71-22.9,48.46-44.48,98.25-67,147.1-120.12-37.28-229.28-89.06-314.86-162.72-41.36-35.6-82-78.36-106.8-132-12.48-27-22.17-58.76-22.17-97.23,0-37.17,11.56-66.55,26.2-92.69,73.78,17.07,146.34,35.35,220.15,52.39,4.53-9.14,9-18,14.61-26.2s11.93-15.5,17.13-22.67c-71.56-16.6-142.44-33.87-213.6-50.88-1.25-2.29,2-3.54,3-4.53,46.55-46.55,112.65-78.55,184.38-100.25,66.55-20.14,140-31.94,223.17-34.26,95.18-2.65,184.92,5.24,266,21.16-13.58,30.25-27.46,60.19-41.31,90.18,31.86,6.09,63.76,12.15,92.19,21.66,14-29.35,25.48-61.17,38.79-91.18,113.08,30.58,215.66,75.76,301.26,135.52,42.6,29.74,82.2,63,114.86,103.78,32.38,40.41,60.34,87.64,64,154.15-76.73-17.64-152.58-36.16-229.22-53.9a120,120,0,0,1-13.1,54.91Q2181.22,932.39,2298.24,960.71Z" transform="translate(-216.64 -213.11)"/><path class="b" d="M3283.36,1753.39q0,39.33-27.85,67.18t-67.18,27.85q-39.33,0-67.17-27.85t-27.85-67.18q0-39.32,27.85-67.17t67.17-27.85q39.33,0,67.18,27.85T3283.36,1753.39Zm-21,0q0-30.65-21.7-52.67t-52.35-22q-30.65,0-52.34,22t-21.7,52.67q0,30.65,21.7,52.68t52.34,22q30.65,0,52.35-22T3262.37,1753.39Zm-20.65,45h-29.79l-28.65-34.71h-9.44v34.71h-23.29v-94.58h35.92a132.93,132.93,0,0,1,16,.77,34.43,34.43,0,0,1,12,4,24.45,24.45,0,0,1,9.5,8.79,25.13,25.13,0,0,1,3,12.85q0,10.33-5.82,17a38.66,38.66,0,0,1-15.16,10.43Zm-40.65-66.51a11.69,11.69,0,0,0-1.26-5.42,9.39,9.39,0,0,0-4.23-4,16.46,16.46,0,0,0-6.32-1.91,76.87,76.87,0,0,0-8.07-.38h-7.36v26.59h5.6a52.62,52.62,0,0,0,10-.82,15.66,15.66,0,0,0,6.7-2.79,11.32,11.32,0,0,0,3.74-4.59A16.47,16.47,0,0,0,3201.07,1731.92Z" transform="translate(-216.64 -213.11)"/></svg>