<?xml version="1.0" encoding="iso-8859-1"?>
<!-- Generator: Adobe Illustrator 19.0.0, SVG Export Plug-In . SVG Version: 6.00 Build 0)  -->
<svg version="1.1" id="Capa_1" xmlns="http://www.w3.org/2000/svg" xmlns:xlink="http://www.w3.org/1999/xlink" x="0px" y="0px"
	 viewBox="0 0 539.077 539.077" style="enable-background:new 0 0 539.077 539.077;" xml:space="preserve">
<g>
	<g>
		<path d="M269.538,539.077C120.917,539.077,0,418.171,0,269.538C0,120.917,120.917,0,269.538,0
			c148.632,0,269.538,120.917,269.538,269.538C539.077,418.171,418.171,539.077,269.538,539.077z M269.538,22.462
			C133.3,22.462,22.462,133.3,22.462,269.538S133.3,516.615,269.538,516.615s247.077-110.838,247.077-247.077
			S405.777,22.462,269.538,22.462z"/>
		<path d="M269.538,314.462c-24.776,0-44.923-20.158-44.923-44.923c0-24.776,20.147-44.923,44.923-44.923
			c24.765,0,44.923,20.147,44.923,44.923C314.462,294.303,294.303,314.462,269.538,314.462z M269.538,247.077
			c-12.382,0-22.462,10.079-22.462,22.462c0,12.393,10.079,22.462,22.462,22.462C281.932,292,292,281.932,292,269.538
			C292,257.156,281.932,247.077,269.538,247.077z"/>
		<path d="M466.647,362.434c-1.448,0-2.895-0.263-4.299-0.855l-41.479-17.197c-5.725-2.369-8.445-8.95-6.076-14.675
			c2.391-5.747,9.015-8.489,14.675-6.076l41.479,17.197c5.725,2.369,8.445,8.95,6.076,14.675
			C475.224,359.823,471.056,362.434,466.647,362.434z M72.397,362.412c-4.409,0-8.588-2.61-10.375-6.931
			c-2.369-5.725,0.351-12.306,6.076-14.675l41.479-17.175c5.736-2.413,12.306,0.351,14.675,6.076
			c2.369,5.725-0.351,12.306-6.076,14.675l-41.479,17.175C75.292,362.148,73.834,362.412,72.397,362.412z M99.794,284.937H54.871
			c-6.208,0-11.231-5.023-11.231-11.231c0-6.208,5.023-11.231,11.231-11.231h44.923c6.208,0,11.231,5.023,11.231,11.231
			C111.024,279.914,106.001,284.937,99.794,284.937z M482.901,280.791L482.901,280.791L438,280.769
			c-6.208,0-11.231-5.023-11.231-11.242c0-6.197,5.023-11.22,11.231-11.22l0,0l44.901,0.022c6.208,0,11.231,5.034,11.231,11.231
			C494.132,275.768,489.109,280.791,482.901,280.791z M293.36,256.937c-2.874,0-5.747-1.097-7.941-3.29
			c-4.387-4.387-4.387-11.494,0-15.881l111.167-111.156c4.387-4.387,11.494-4.387,15.881,0c4.387,4.387,4.387,11.494,0,15.881
			L301.3,253.646C299.107,255.84,296.233,256.937,293.36,256.937z M113.876,216.302c-1.437,0-2.895-0.274-4.31-0.855l-41.457-17.208
			c-5.725-2.38-8.445-8.95-6.065-14.686c2.391-5.736,8.939-8.434,14.686-6.065l41.457,17.208c5.725,2.38,8.445,8.95,6.065,14.686
			C122.453,213.703,118.274,216.302,113.876,216.302z M425.168,216.302c-4.409,0-8.577-2.61-10.375-6.931
			c-2.369-5.736,0.351-12.306,6.076-14.675l41.501-17.175c5.747-2.347,12.306,0.362,14.675,6.076
			c2.369,5.736-0.351,12.306-6.076,14.675l-41.501,17.175C428.063,216.028,426.594,216.302,425.168,216.302z M150.398,161.629
			c-2.873,0-5.747-1.097-7.94-3.29l-31.729-31.751c-4.387-4.387-4.387-11.505,0-15.881c4.387-4.387,11.494-4.387,15.881,0
			l31.729,31.751c4.387,4.387,4.387,11.505,0,15.881C156.145,160.532,153.271,161.629,150.398,161.629z M205.071,125.107
			c-4.398,0-8.588-2.61-10.375-6.931l-17.175-41.479c-2.369-5.736,0.351-12.306,6.076-14.675c5.692-2.347,12.306,0.351,14.675,6.076
			l17.175,41.479c2.369,5.736-0.351,12.306-6.076,14.675C207.967,124.833,206.508,125.107,205.071,125.107z M334.006,125.107
			c-1.448,0-2.895-0.274-4.299-0.855c-5.725-2.38-8.445-8.95-6.076-14.675l17.197-41.457c2.391-5.736,8.971-8.445,14.675-6.076
			c5.725,2.38,8.445,8.95,6.076,14.675l-17.197,41.457C342.582,122.497,338.415,125.107,334.006,125.107z M268.255,116.486
			c-6.208,0-11.231-5.023-11.231-11.231V60.332c0-6.208,5.023-11.231,11.231-11.231c6.197,0,11.242,5.023,11.242,11.231v44.923
			C279.497,111.463,274.452,116.486,268.255,116.486z"/>
		<path d="M370.615,449.231H168.462c-6.208,0-11.231-5.023-11.231-11.231v-67.385c0-6.208,5.023-11.231,11.231-11.231h202.154
			c6.208,0,11.231,5.023,11.231,11.231V438C381.846,444.208,376.823,449.231,370.615,449.231z M179.692,426.769h179.692v-44.923
			H179.692V426.769z"/>
	</g>
</g>
<g>
</g>
<g>
</g>
<g>
</g>
<g>
</g>
<g>
</g>
<g>
</g>
<g>
</g>
<g>
</g>
<g>
</g>
<g>
</g>
<g>
</g>
<g>
</g>
<g>
</g>
<g>
</g>
<g>
</g>
</svg>
