<?xml version="1.0" encoding="iso-8859-1"?>
<!-- Generator: Adobe Illustrator 19.0.0, SVG Export Plug-In . SVG Version: 6.00 Build 0)  -->
<svg version="1.1" id="Layer_1" xmlns="http://www.w3.org/2000/svg" xmlns:xlink="http://www.w3.org/1999/xlink" x="0px" y="0px"
	 viewBox="0 0 512 512" style="enable-background:new 0 0 512 512;" xml:space="preserve">
<g>
	<g>
		<g>
			<path d="M501.331,106.668h-10.662V74.672c0-5.892-4.777-10.669-10.669-10.669H243.489l-8.338-15.678
				c-1.852-3.482-5.476-5.66-9.42-5.66H10.669C4.776,42.666,0,47.445,0,53.335v405.33c0,5.892,4.776,10.669,10.669,10.669h490.663
				c5.892,0,10.669-4.776,10.669-10.669V117.337C512,111.444,507.225,106.668,501.331,106.668z M469.332,85.341v21.327h-203.15
				l-11.343-21.327H469.332z M490.663,447.996H21.337V64.004h197.984l8.329,15.66c0.028,0.052,0.054,0.105,0.083,0.156
				l22.619,42.527c1.852,3.482,5.475,5.66,9.419,5.66h230.891V447.996z"/>
			<path d="M163.304,106.676h0.253c5.891,0,10.669-4.776,10.669-10.669c0-5.89-4.777-10.669-10.669-10.669h-0.253
				c-5.892,0-10.669,4.779-10.669,10.669C152.635,101.901,157.411,106.676,163.304,106.676z"/>
			<path d="M143.328,96.003c0-5.89-4.775-10.669-10.669-10.669H53.335c-5.892,0-10.669,4.779-10.669,10.669
				c0,5.892,4.776,10.669,10.669,10.669h79.324C138.551,106.672,143.328,101.897,143.328,96.003z"/>
			<path d="M173.312,321.911v-0.002c3.201,0,5.013-3.411,5.013-7.357c0-3.415-1.494-7.147-5.013-7.147h-37.973
				c-3.626,0-7.255,1.705-7.255,5.116v67.734c0,3.417,3.627,5.122,7.255,5.122h37.973c3.52,0,5.013-3.732,5.013-7.147
				c0-3.946-1.813-7.357-5.013-7.357h-28.587V352.74h16c3.521,0,5.012-3.417,5.012-6.292c0-3.417-1.814-6.508-5.012-6.508h-16
				v-18.028H173.312z"/>
			<path d="M76.482,327.243c0-3.307,3.092-6.403,10.664-6.403c8.747,0,10.774,4.055,14.615,4.055c4.691,0,6.611-5.864,6.611-8.745
				c0-8.321-15.572-9.39-21.228-9.39c-13.332,0-27.306,6.082-27.306,22.083c0,24.962,33.812,22.721,33.812,35.626
				c0,5.122-5.441,7.039-10.347,7.039c-9.92,0-13.12-7.89-18.134-7.89c-4.052,0-7.253,5.328-7.253,8.957
				c0,7.039,11.733,13.867,25.705,13.867c15.469,0,26.669-8.321,26.669-23.681C110.294,335.885,76.482,337.912,76.482,327.243z"/>
			<path d="M213.035,196.919c0-3.52-1.491-7.361-5.011-7.361h-46.079c-3.521,0-5.015,3.843-5.015,7.361
				c0,4.053,1.814,7.575,5.015,7.575h14.72v57.919c0,3.411,4.159,5.118,8.321,5.118c4.159,0,8.32-1.707,8.32-5.118v-57.919h14.72
				C211.221,204.494,213.035,200.972,213.035,196.919z"/>
			<path d="M402.987,322.339h14.721v57.915c0,3.417,4.159,5.122,8.321,5.122c4.159,0,8.321-1.705,8.321-5.122v-57.915h14.72
				c3.198,0,5.012-3.52,5.012-7.575c-0.001-3.52-1.494-7.359-5.013-7.359h-46.08c-3.521,0-5.012,3.841-5.012,7.359
				C397.975,318.819,399.789,322.339,402.987,322.339z"/>
			<path d="M335.807,312.521v67.734c0,3.417,3.626,5.122,7.254,5.122h37.972c3.52,0,5.013-3.732,5.013-7.147
				c0-3.946-1.813-7.357-5.013-7.357h-28.585V352.74h15.999c3.52,0,5.012-3.417,5.012-6.292c0-3.417-1.812-6.508-5.012-6.508
				h-15.999v-18.028h28.585v-0.002c3.201,0,5.013-3.411,5.013-7.357c0-3.415-1.494-7.147-5.013-7.147h-37.972
				C339.435,307.405,335.807,309.11,335.807,312.521z"/>
			<path d="M308.137,267.531c4.161,0,8.321-1.707,8.321-5.118v-23.042h10.559c14.721,0,26.242-6.826,26.242-24.748v-0.529
				c0-17.92-11.093-24.536-25.173-24.536h-22.079c-3.735,0-6.187,2.348-6.187,5.013v67.842
				C299.82,265.824,303.977,267.531,308.137,267.531z M316.458,204.062h10.559c5.974,0,9.602,3.417,9.602,10.669v1.174
				c0,7.256-3.627,10.667-9.602,10.667h-10.559V204.062z"/>
			<path d="M227.2,214.73v28.268c0,18.347,11.412,25.174,26.133,25.174c14.721,0,26.24-6.826,26.24-25.174V214.73
				c0-18.345-11.519-25.174-26.24-25.174S227.2,196.384,227.2,214.73z M262.934,214.73v28.268c0,7.361-3.627,10.664-9.601,10.664
				c-5.972,0-9.493-3.303-9.493-10.664V214.73c0-7.359,3.521-10.669,9.493-10.669C259.306,204.062,262.934,207.371,262.934,214.73z"
				/>
			<path d="M263.936,312.415v67.838c0,3.417,4.16,5.122,8.32,5.122c4.161,0,8.318-1.705,8.318-5.122V354.55h7.042l14.612,28.372
				c1.174,2.24,3.201,3.096,5.333,3.096c4.907,0,10.453-4.484,10.453-8.644c0-0.533-0.107-1.279-0.533-1.917l-13.015-23.576
				c7.467-2.877,12.908-9.704,12.908-21.652c0-17.387-11.627-22.826-26.239-22.826h-22.081
				C265.965,307.404,263.936,309.752,263.936,312.415z M280.575,321.909h10.562c5.972,0,9.598,2.453,9.598,9.921
				c0,7.466-3.626,9.919-9.598,9.919h-10.562V321.909z"/>
			<path d="M219.798,321.909c9.064,0,9.385,6.826,9.491,9.6c0.212,3.843,3.84,5.013,8.32,5.013c5.653,0,8.321-1.494,8.321-7.891
				c0-13.55-11.521-21.228-26.772-21.228c-13.976,0-25.601,6.826-25.601,25.174v28.268c0,18.345,11.625,25.174,25.601,25.174
				c15.251,0,26.772-8.108,26.772-22.295c0-6.399-2.667-7.895-8.426-7.895c-4.265,0-7.895,1.067-8.214,5.018
				c-0.319,4.158-0.852,10.662-9.387,10.662c-6.185,0-9.705-3.411-9.705-10.662v-28.268
				C210.197,325.325,213.718,321.909,219.798,321.909z"/>
		</g>
	</g>
</g>
<g>
</g>
<g>
</g>
<g>
</g>
<g>
</g>
<g>
</g>
<g>
</g>
<g>
</g>
<g>
</g>
<g>
</g>
<g>
</g>
<g>
</g>
<g>
</g>
<g>
</g>
<g>
</g>
<g>
</g>
</svg>
